<?xml version="1.0" encoding="UTF-8" standalone="no"?>
<!-- Created with Inkscape (http://www.inkscape.org/) -->
<svg
   xmlns:dc="http://purl.org/dc/elements/1.1/"
   xmlns:cc="http://creativecommons.org/ns#"
   xmlns:rdf="http://www.w3.org/1999/02/22-rdf-syntax-ns#"
   xmlns:svg="http://www.w3.org/2000/svg"
   xmlns="http://www.w3.org/2000/svg"
   xmlns:xlink="http://www.w3.org/1999/xlink"
   xmlns:sodipodi="http://sodipodi.sourceforge.net/DTD/sodipodi-0.dtd"
   xmlns:inkscape="http://www.inkscape.org/namespaces/inkscape"
   width="744.09448819"
   height="1052.3622047"
   id="svg2"
   sodipodi:version="0.32"
   inkscape:version="0.46"
   sodipodi:docname="flyer-main.svg"
   inkscape:output_extension="org.inkscape.output.svg.inkscape">
  <defs
     id="defs4">
    <inkscape:perspective
       sodipodi:type="inkscape:persp3d"
       inkscape:vp_x="0 : 526.18109 : 1"
       inkscape:vp_y="0 : 1000 : 0"
       inkscape:vp_z="744.09448 : 526.18109 : 1"
       inkscape:persp3d-origin="372.04724 : 350.78739 : 1"
       id="perspective10" />
    <inkscape:perspective
       sodipodi:type="inkscape:persp3d"
       inkscape:vp_x="0 : 526.18109 : 1"
       inkscape:vp_y="0 : 1000 : 0"
       inkscape:vp_z="744.09448 : 526.18109 : 1"
       inkscape:persp3d-origin="372.04724 : 350.78739 : 1"
       id="perspective3198" />
    <inkscape:perspective
       sodipodi:type="inkscape:persp3d"
       inkscape:vp_x="0 : 526.18109 : 1"
       inkscape:vp_y="0 : 1000 : 0"
       inkscape:vp_z="744.09448 : 526.18109 : 1"
       inkscape:persp3d-origin="372.04724 : 350.78739 : 1"
       id="perspective3185" />
    <inkscape:perspective
       id="perspective3602"
       inkscape:persp3d-origin="372.04724 : 350.78739 : 1"
       inkscape:vp_z="744.09448 : 526.18109 : 1"
       inkscape:vp_y="0 : 1000 : 0"
       inkscape:vp_x="0 : 526.18109 : 1"
       sodipodi:type="inkscape:persp3d" />
    <inkscape:perspective
       id="perspective3050"
       inkscape:persp3d-origin="372.04724 : 350.78739 : 1"
       inkscape:vp_z="744.09448 : 526.18109 : 1"
       inkscape:vp_y="0 : 1000 : 0"
       inkscape:vp_x="0 : 526.18109 : 1"
       sodipodi:type="inkscape:persp3d" />
    <inkscape:perspective
       id="perspective3888"
       inkscape:persp3d-origin="372.04724 : 350.78739 : 1"
       inkscape:vp_z="744.09448 : 526.18109 : 1"
       inkscape:vp_y="0 : 1000 : 0"
       inkscape:vp_x="0 : 526.18109 : 1"
       sodipodi:type="inkscape:persp3d" />
    <inkscape:perspective
       id="perspective4091"
       inkscape:persp3d-origin="372.04724 : 350.78739 : 1"
       inkscape:vp_z="744.09448 : 526.18109 : 1"
       inkscape:vp_y="0 : 1000 : 0"
       inkscape:vp_x="0 : 526.18109 : 1"
       sodipodi:type="inkscape:persp3d" />
  </defs>
  <sodipodi:namedview
     id="base"
     pagecolor="#ffffff"
     bordercolor="#666666"
     borderopacity="1.0"
     gridtolerance="10000"
     guidetolerance="10"
     objecttolerance="10"
     inkscape:pageopacity="0.0"
     inkscape:pageshadow="2"
     inkscape:zoom="0.7"
     inkscape:cx="580.28437"
     inkscape:cy="655.19288"
     inkscape:document-units="px"
     inkscape:current-layer="layer1"
     showgrid="false"
     showguides="true"
     inkscape:guide-bbox="true"
     inkscape:window-width="1440"
     inkscape:window-height="853"
     inkscape:window-x="0"
     inkscape:window-y="20" />
  <metadata
     id="metadata7">
    <rdf:RDF>
      <cc:Work
         rdf:about="">
        <dc:format>image/svg+xml</dc:format>
        <dc:type
           rdf:resource="http://purl.org/dc/dcmitype/StillImage" />
      </cc:Work>
    </rdf:RDF>
  </metadata>
  <g
     inkscape:label="Layer 1"
     inkscape:groupmode="layer"
     id="layer1">
    <image
       y="-105.4258"
       x="904.19409"
       id="image3890"
       height="495.5759"
       width="740.18341"
       sodipodi:absref="C:\Users\Zack\Desktop\ImagineCup\Reactivity-Repo\Presentation\Images\clouds_wheat_cc.jpg"
       xlink:href="C:\Users\Zack\Desktop\ImagineCup\Reactivity-Repo\Presentation\Images\clouds_wheat_cc.jpg" />
    <g
       transform="matrix(0.5804919,0,0,0.5804919,62.039954,-172.19352)"
       id="g2717"
       inkscape:label="Layer 1">
      <text
         inkscape:export-ydpi="100"
         inkscape:export-xdpi="100"
         inkscape:export-filename="C:\Users\Zack\Desktop\ImagineCup\reactivityText.png"
         id="text2389"
         y="458.3436"
         x="-1.8592676"
         style="font-size:120.44747162px;font-style:normal;font-weight:normal;fill:#00375c;fill-opacity:1;stroke:none;stroke-width:1.79999995;stroke-linecap:butt;stroke-linejoin:miter;stroke-miterlimit:4;stroke-dasharray:none;stroke-opacity:1;font-family:Acens"
         xml:space="preserve"><tspan
           style="fill:#00375c;fill-opacity:1;stroke:none;stroke-width:1.79999995;stroke-linejoin:miter;stroke-miterlimit:4;stroke-dasharray:none;stroke-opacity:1;-inkscape-font-specification:Acens"
           y="458.3436"
           x="-1.8592676"
           id="tspan2391"
           sodipodi:role="line">REACTIVITY</tspan></text>
      <path
         inkscape:export-ydpi="100"
         inkscape:export-xdpi="100"
         inkscape:export-filename="C:\Users\Zack\Desktop\ImagineCup\green_arrow.png"
         sodipodi:nodetypes="cccccc"
         id="rect3163"
         d="M 2.70338,468.19104 L 722.07918,468.19104 L 656.31237,506.49822 L 656.77184,484.1603 L 2.70338,484.1603 L 2.70338,468.19104 z"
         style="fill:#59b107;fill-opacity:1;stroke:none;stroke-width:3.5;stroke-miterlimit:4;stroke-dasharray:none;stroke-opacity:1" />
      <path
         inkscape:export-ydpi="100"
         inkscape:export-xdpi="100"
         inkscape:export-filename="C:\Users\Zack\Desktop\ImagineCup\blue_arrow.png"
         sodipodi:nodetypes="cccccc"
         id="path3178"
         d="M 722.07918,371.43333 L 2.70338,371.43333 L 68.4702,333.12615 L 68.01073,355.46407 L 722.07918,355.46407 L 722.07918,371.43333 z"
         style="fill:#3073b5;fill-opacity:1;stroke:none;stroke-width:3.5;stroke-miterlimit:4;stroke-dasharray:none;stroke-opacity:1" />
    </g>
    <g
       id="g3320"
       transform="matrix(0.8275661,0,0,0.8275661,267.1068,-215.92449)">
      <path
         inkscape:export-ydpi="105.38143"
         inkscape:export-xdpi="105.38143"
         inkscape:export-filename="C:\Users\Zack\Desktop\ImagineCup\Reactivity-Repo\Presentation\Images\teamSparxLogo-Color.png"
         transform="matrix(0.4918761,0,0,0.4918761,392.21438,89.553384)"
         d="M 244.28571,492.36217 C 242.52595,492.41492 241.54109,475.98169 239.91456,475.30796 C 238.24621,474.6169 225.39724,485.23185 224.08266,483.99379 C 222.80101,482.78676 233.72466,470.47031 233.05094,468.84377 C 232.35989,467.17542 215.76839,465.59573 215.71428,463.79074 C 215.66152,462.03098 232.09475,461.04612 232.76849,459.41959 C 233.45955,457.75125 222.84459,444.90228 224.08265,443.58769 C 225.28969,442.30605 237.60614,453.2297 239.23267,452.55597 C 240.90102,451.86493 242.48071,435.27342 244.2857,435.21931 C 246.04546,435.16656 247.03032,451.59979 248.65685,452.27353 C 250.3252,452.96458 263.17417,442.34963 264.48876,443.58769 C 265.7704,444.79472 254.84675,457.11117 255.52048,458.73771 C 256.21152,460.40606 272.80302,461.98575 272.85713,463.79074 C 272.90989,465.5505 256.47666,466.53536 255.80292,468.16189 C 255.11186,469.83023 265.72682,482.67921 264.48876,483.99379 C 263.28172,485.27543 250.96527,474.35178 249.33874,475.02551 C 247.67039,475.71656 246.0907,492.30806 244.28571,492.36217 z"
         inkscape:randomized="0"
         inkscape:rounded="0.1"
         inkscape:flatsided="false"
         sodipodi:arg2="1.9335341"
         sodipodi:arg1="1.5707963"
         sodipodi:r2="12.318814"
         sodipodi:r1="28.571428"
         sodipodi:cy="463.79074"
         sodipodi:cx="244.28571"
         sodipodi:sides="8"
         id="path2503"
         style="opacity:1;fill:#e5ae14;fill-opacity:0.98823529;stroke:none;stroke-width:3;stroke-miterlimit:4;stroke-dasharray:none;stroke-opacity:1"
         sodipodi:type="star" />
      <text
         inkscape:export-ydpi="105.38143"
         inkscape:export-xdpi="105.38143"
         inkscape:export-filename="C:\Users\Zack\Desktop\ImagineCup\Reactivity-Repo\Presentation\Images\teamSparxLogo-Color.png"
         id="text2505"
         y="385.61319"
         x="290.70584"
         style="font-size:72.57237244px;font-style:normal;font-weight:normal;fill:#2f73b5;fill-opacity:0.98823529;stroke:none;stroke-width:1px;stroke-linecap:butt;stroke-linejoin:miter;stroke-opacity:1;font-family:PetitaBold"
         xml:space="preserve"><tspan
           y="385.61319"
           x="290.70584"
           id="tspan2507"
           sodipodi:role="line">SPARX</tspan></text>
      <text
         inkscape:export-ydpi="105.38143"
         inkscape:export-xdpi="105.38143"
         inkscape:export-filename="C:\Users\Zack\Desktop\ImagineCup\Reactivity-Repo\Presentation\Images\teamSparxLogo-Color.png"
         id="text2509"
         y="328.54626"
         x="293.65552"
         style="font-size:21.85407639px;font-style:normal;font-weight:normal;fill:#b3b3b3;fill-opacity:0.98823529;stroke:none;stroke-width:1px;stroke-linecap:butt;stroke-linejoin:miter;stroke-opacity:1;font-family:PetitaBold"
         xml:space="preserve"><tspan
           y="328.54626"
           x="293.65552"
           id="tspan2511"
           sodipodi:role="line">Team</tspan></text>
      <path
         inkscape:export-ydpi="105.38143"
         inkscape:export-xdpi="105.38143"
         inkscape:export-filename="C:\Users\Zack\Desktop\ImagineCup\Reactivity-Repo\Presentation\Images\teamSparxLogo-Color.png"
         transform="matrix(0.4918761,0,0,0.4918761,420.56287,80.275261)"
         d="M 244.28571,492.36217 C 242.52595,492.41492 241.54109,475.98169 239.91456,475.30796 C 238.24621,474.6169 225.39724,485.23185 224.08266,483.99379 C 222.80101,482.78676 233.72466,470.47031 233.05094,468.84377 C 232.35989,467.17542 215.76839,465.59573 215.71428,463.79074 C 215.66152,462.03098 232.09475,461.04612 232.76849,459.41959 C 233.45955,457.75125 222.84459,444.90228 224.08265,443.58769 C 225.28969,442.30605 237.60614,453.2297 239.23267,452.55597 C 240.90102,451.86493 242.48071,435.27342 244.2857,435.21931 C 246.04546,435.16656 247.03032,451.59979 248.65685,452.27353 C 250.3252,452.96458 263.17417,442.34963 264.48876,443.58769 C 265.7704,444.79472 254.84675,457.11117 255.52048,458.73771 C 256.21152,460.40606 272.80302,461.98575 272.85713,463.79074 C 272.90989,465.5505 256.47666,466.53536 255.80292,468.16189 C 255.11186,469.83023 265.72682,482.67921 264.48876,483.99379 C 263.28172,485.27543 250.96527,474.35178 249.33874,475.02551 C 247.67039,475.71656 246.0907,492.30806 244.28571,492.36217 z"
         inkscape:randomized="0"
         inkscape:rounded="0.1"
         inkscape:flatsided="false"
         sodipodi:arg2="1.9335341"
         sodipodi:arg1="1.5707963"
         sodipodi:r2="12.318814"
         sodipodi:r1="28.571428"
         sodipodi:cy="463.79074"
         sodipodi:cx="244.28571"
         sodipodi:sides="8"
         id="path2513"
         style="opacity:1;fill:#e5ae14;fill-opacity:0.98823529;stroke:none;stroke-width:3;stroke-miterlimit:4;stroke-dasharray:none;stroke-opacity:1"
         sodipodi:type="star" />
      <path
         inkscape:export-ydpi="105.38143"
         inkscape:export-xdpi="105.38143"
         inkscape:export-filename="C:\Users\Zack\Desktop\ImagineCup\Reactivity-Repo\Presentation\Images\teamSparxLogo-Color.png"
         transform="matrix(0.4918761,0,0,0.4918761,419.54831,110.40103)"
         d="M 244.28571,492.36217 C 242.52595,492.41492 241.54109,475.98169 239.91456,475.30796 C 238.24621,474.6169 225.39724,485.23185 224.08266,483.99379 C 222.80101,482.78676 233.72466,470.47031 233.05094,468.84377 C 232.35989,467.17542 215.76839,465.59573 215.71428,463.79074 C 215.66152,462.03098 232.09475,461.04612 232.76849,459.41959 C 233.45955,457.75125 222.84459,444.90228 224.08265,443.58769 C 225.28969,442.30605 237.60614,453.2297 239.23267,452.55597 C 240.90102,451.86493 242.48071,435.27342 244.2857,435.21931 C 246.04546,435.16656 247.03032,451.59979 248.65685,452.27353 C 250.3252,452.96458 263.17417,442.34963 264.48876,443.58769 C 265.7704,444.79472 254.84675,457.11117 255.52048,458.73771 C 256.21152,460.40606 272.80302,461.98575 272.85713,463.79074 C 272.90989,465.5505 256.47666,466.53536 255.80292,468.16189 C 255.11186,469.83023 265.72682,482.67921 264.48876,483.99379 C 263.28172,485.27543 250.96527,474.35178 249.33874,475.02551 C 247.67039,475.71656 246.0907,492.30806 244.28571,492.36217 z"
         inkscape:randomized="0"
         inkscape:rounded="0.1"
         inkscape:flatsided="false"
         sodipodi:arg2="1.9335341"
         sodipodi:arg1="1.5707963"
         sodipodi:r2="12.318814"
         sodipodi:r1="28.571428"
         sodipodi:cy="463.79074"
         sodipodi:cx="244.28571"
         sodipodi:sides="8"
         id="path2515"
         style="opacity:1;fill:#e5ae14;fill-opacity:0.98823529;stroke:none;stroke-width:3;stroke-miterlimit:4;stroke-dasharray:none;stroke-opacity:1"
         sodipodi:type="star" />
    </g>
    <image
       y="215.62242"
       x="46.183277"
       id="image4093"
       height="83.347351"
       width="631.87714"
       sodipodi:absref="C:\Users\Zack\Desktop\ImagineCup\Reactivity-Repo\Presentation\Images\fusion-diagram.png"
       xlink:href="C:\Users\Zack\Desktop\ImagineCup\Reactivity-Repo\Presentation\Images\fusion-diagram.png" />
    <text
       xml:space="preserve"
       style="font-size:29.23625183px;font-style:normal;font-weight:normal;fill:#000000;fill-opacity:1;stroke:none;stroke-width:1px;stroke-linecap:butt;stroke-linejoin:miter;stroke-opacity:1;font-family:Reznor"
       x="6.6684794"
       y="172.76424"
       id="text4097"><tspan
         sodipodi:role="line"
         id="tspan4099"
         x="6.6684794"
         y="172.76424">what is Reactivity?</tspan></text>
    <text
       xml:space="preserve"
       style="font-size:29.23625183px;font-style:normal;font-weight:normal;fill:#000000;fill-opacity:1;stroke:none;stroke-width:1px;stroke-linecap:butt;stroke-linejoin:miter;stroke-opacity:1;font-family:Bitstream Vera Sans"
       x="20.704519"
       y="407.36966"
       id="text4101"><tspan
         sodipodi:role="line"
         id="tspan4103"
         x="20.704519"
         y="407.36966">How does Reactivity Enable a Sustainable Environment?</tspan></text>
    <text
       xml:space="preserve"
       style="font-size:29.23625183px;font-style:normal;font-weight:normal;fill:#000000;fill-opacity:1;stroke:none;stroke-width:1px;stroke-linecap:butt;stroke-linejoin:miter;stroke-opacity:1;font-family:Bitstream Vera Sans"
       x="14.721202"
       y="592.78534"
       id="text4105"><tspan
         sodipodi:role="line"
         id="tspan4107"
         x="14.721202"
         y="592.78534">How does Reactivity Enable a Sustainable Environment?</tspan></text>
    <text
       xml:space="preserve"
       style="font-size:29.23625183px;font-style:normal;font-weight:normal;fill:#000000;fill-opacity:1;stroke:none;stroke-width:1px;stroke-linecap:butt;stroke-linejoin:miter;stroke-opacity:1;font-family:Reznor"
       x="7.2867279"
       y="352.72061"
       id="text2489"><tspan
         sodipodi:role="line"
         id="tspan2491"
         x="7.2867279"
         y="352.72061">How does Reactivity Enable a Sustainable Environment?</tspan></text>
  </g>
</svg>
